HIERARCHY
ROOT Hips
{
    OFFSET 0.000000 0.000000 0.000000
    CHANNELS 6 Xposition Yposition Zposition Zrotation Xrotation Yrotation
        JOINT Chest
        {
            OFFSET -0.000000 30.832245 -0.000000
            CHANNELS 3 Zrotation Xrotation Yrotation
            JOINT Neck
            {
                OFFSET -0.000000 22.747684 0.000000
                CHANNELS 3 Zrotation Xrotation Yrotation
                JOINT Head
                {
                    OFFSET -0.000000 10.755556 0.000000
                    CHANNELS 3 Zrotation Xrotation Yrotation
                    End Site
                    {
                        OFFSET -0.000000 16.622223 0.000000
                    }
                }
            }
            JOINT LeftCollar
            {
                OFFSET -0.000000 22.747684 0.000000
                CHANNELS 3 Zrotation Xrotation Yrotation
                JOINT LeftShoulder
                {
                    OFFSET 19.555553 -0.000000 0.000000
                    CHANNELS 3 Zrotation Xrotation Yrotation
                    JOINT LeftElbow
                    {
                        OFFSET 22.529686 0.000000 0.000000
                        CHANNELS 3 Zrotation Xrotation Yrotation
                        JOINT LeftWrist
                        {
                            OFFSET 26.249420 0.000000 0.000000
                            CHANNELS 3 Zrotation Xrotation Yrotation
                            End Site
                            {
                                OFFSET 0.000000 -14.666668 0.000000
                            }
                        }
                    }
                }
            }
            JOINT RightCollar
            {
                OFFSET -0.000000 22.747684 0.000000
                CHANNELS 3 Zrotation Xrotation Yrotation
                JOINT RightShoulder
                {
                    OFFSET -19.555553 0.000000 0.000000
                    CHANNELS 3 Zrotation Xrotation Yrotation
                    JOINT RightElbow
                    {
                        OFFSET -22.529686 0.000000 0.000000
                        CHANNELS 3 Zrotation Xrotation Yrotation
                        JOINT RightWrist
                        {
                            OFFSET -26.249420 0.000000 0.000000
                            CHANNELS 3 Zrotation Xrotation Yrotation
                            End Site
                            {
                                OFFSET -0.000000 -14.666668 0.000000
                            }
                        }
                    }
                }
            }
        }
    JOINT LeftHip
    {
        OFFSET 11.733333 0.000000 0.000000
        CHANNELS 3 Zrotation Xrotation Yrotation
        JOINT LeftKnee
        {
            OFFSET -0.000000 -34.781296 0.000000
            CHANNELS 3 Zrotation Xrotation Yrotation
            JOINT LeftAnkle
            {
                OFFSET -0.000000 -42.425819 0.000000
                CHANNELS 3 Zrotation Xrotation Yrotation
                End Site
                {
                    OFFSET -0.000000 -4.888888 16.622223
                }
            }
        }
    }
    JOINT RightHip
    {
        OFFSET -11.733333 0.000000 0.000000
        CHANNELS 3 Zrotation Xrotation Yrotation
        JOINT RightKnee
        {
            OFFSET -0.000000 -34.781296 0.000000
            CHANNELS 3 Zrotation Xrotation Yrotation
            JOINT RightAnkle
            {
                OFFSET -0.000000 -42.425819 0.000000
                CHANNELS 3 Zrotation Xrotation Yrotation
                End Site
                {
                    OFFSET -0.000000 -4.888888 16.622223
                }
            }
        }
    }
}
MOTION
Frames:    6
Frame Time:    0.010000
40.996468    83.185036    8.423090    -3.845168    2.221806    -28.869913    -8.695853    18.434479    23.875059    3.452233    5.838092    -18.556620    22.763414    -14.107634    -15.527554    -9.028336    -0.099470    1.402819    -31.473680    48.383289    -30.005621    19.153248    -11.899800    -57.532108    109.084984    -22.185259    38.534286    0.575090    0.037673    7.674761    41.705837    37.341019    66.231949    -4.067153    -3.074291    73.282227    -83.773163    24.446203    -60.170864    12.566925    -29.044315    -3.123493    -0.867956    24.466913    -22.857643    -10.191628    -6.302136    23.113754    -5.649542    4.459706    -7.830688    5.172003    19.304514    -14.193456    1.856544    -14.630698    -17.746492    
40.828682    83.184746    7.980885    -3.824846    2.273192    -28.637688    -8.746456    18.246853    23.718458    3.545012    5.993597    -18.619162    22.435566    -14.166982    -15.610275    -8.998027    -0.118498    1.471518    -33.516010    48.424725    -27.895523    21.897543    -13.427981    -57.165127    111.081261    -20.315956    43.417332    0.374268    0.039170    7.486173    42.148609    37.162319    65.242439    -4.096294    -3.051801    73.930878    -83.816895    23.913008    -56.750511    12.606325    -29.057487    -3.300270    -0.608967    23.993925    -22.747910    -9.804263    -6.461583    23.300131    -5.396176    3.941200    -8.097477    5.302536    19.745848    -14.712152    1.277383    -14.632778    -17.842556    
40.673649    83.157494    7.530382    -3.773255    2.304392    -28.449236    -8.836946    18.062548    23.516670    3.664899    6.195609    -18.651915    22.054050    -14.265553    -15.659768    -8.978616    -0.137775    1.550992    -35.353962    48.494705    -26.036776    24.699913    -14.892632    -56.648849    112.816353    -18.523262    47.827808    0.212115    -0.001795    7.284130    42.674896    37.044945    64.168869    -3.941474    -2.903092    74.513969    -84.461411    23.355438    -53.141811    12.667197    -29.104319    -3.436677    -0.420219    23.583973    -22.552113    -9.492764    -6.621161    23.406519    -5.239234    3.374084    -8.457362    5.452654    20.346266    -15.160758    0.926367    -14.727222    -17.917463    
40.530449    83.100540    7.073248    -3.690434    2.309680    -28.298073    -8.963702    17.885712    23.270432    3.793696    6.427554    -18.651001    21.624619    -14.386270    -15.676029    -8.974304    -0.117866    1.613946    -37.012730    48.508709    -24.402937    27.493826    -16.260519    -56.032421    114.351501    -16.862307    51.670414    0.091649    0.011225    7.077607    43.232368    36.906189    63.097469    -3.547714    -2.461833    74.935860    -85.772575    22.839411    -49.421692    12.753361    -29.189806    -3.530084    -0.310138    23.249430    -22.281757    -9.322146    -6.797665    23.426102    -5.172244    2.790256    -8.891384    5.600319    21.051867    -15.504253    0.777557    -14.930834    -17.958447    
40.398380    83.012321    6.611483    -3.579514    2.284760    -28.178453    -9.120351    17.720119    22.980642    3.914544    6.675809    -18.612175    21.155394    -14.515478    -15.658497    -8.987085    -0.152506    1.635146    -38.577831    48.500275    -22.881084    30.366053    -17.632359    -55.350315    115.660889    -15.374833    54.934231    0.039368    -0.023357    6.874486    43.809559    36.817104    61.955803    -3.015637    -1.948098    75.326530    -87.582474    22.407009    -45.488686    12.867005    -29.320208    -3.580040    -0.281658    23.006596    -21.953186    -9.327299    -7.002286    23.356764    -5.184391    2.219250    -9.369023    5.730298    21.810877    -15.724017    0.754593    -15.249397    -17.959660    
40.276863    82.892540    6.147464    -3.447528    2.227098    -28.085728    -9.297294    17.569731    22.648563    4.012682    6.930215    -18.532040    20.657152    -14.642704    -15.605136    -9.026224    -0.119333    1.596743    -40.005398    48.312199    -21.506283    33.014370    -18.775309    -54.722565    116.978188    -13.956945    57.664162    0.053068    0.006445    6.680012    44.324944    36.703320    60.860363    -2.252769    -1.198499    75.507339    -89.993790    21.986824    -41.572247    13.009532    -29.501402    -3.587262    -0.331984    22.873535    -21.587297    -9.512800    -7.238673    23.201239    -5.260580    1.686300    -9.851178    5.836378    22.577547    -15.820345    0.770484    -15.681338    -17.921564    
